<svg width="242" height="180" viewBox="0 0 242 180" fill="none" xmlns="http://www.w3.org/2000/svg">
<g clip-path="url(#clip0_37_464)">
<rect width="242" height="179.5" rx="10" fill="white"/>
<rect x="0.25" y="0.25" width="241.5" height="179" rx="9.75" stroke="black" stroke-opacity="0.1" stroke-width="0.5"/>
<rect x="212.99" y="87" width="150" height="150" rx="75" transform="rotate(60.0656 212.99 87)" fill="#5598E5" fill-opacity="0.1"/>
<path d="M169.697 140.133C170.595 138.894 172.326 138.618 173.565 139.515C174.803 140.412 175.08 142.144 174.182 143.382L131.801 201.873L127.316 198.623L169.697 140.133Z" fill="#5598E5"/>
<path d="M183.355 139.245C184.252 138.006 185.983 137.73 187.222 138.627C188.46 139.525 188.737 141.256 187.84 142.495L140.921 207.246L136.437 203.997L183.355 139.245Z" fill="#5598E5"/>
<path d="M207.888 123.348C208.785 122.109 210.517 121.833 211.755 122.73C212.994 123.628 213.27 125.359 212.373 126.598L147.695 215.859L143.21 212.61L207.888 123.348Z" fill="#5598E5"/>
<path d="M237.079 101.021C237.977 99.7827 239.708 99.5062 240.947 100.404C242.185 101.301 242.462 103.032 241.564 104.271L157.989 219.613L153.504 216.364L237.079 101.021Z" fill="#5598E5"/>
</g>
<defs>
<clipPath id="clip0_37_464">
<rect width="242" height="179.5" rx="10" fill="white"/>
</clipPath>
</defs>
</svg>
