<svg width="325" height="286" viewBox="0 0 325 286" fill="none" xmlns="http://www.w3.org/2000/svg">
<g clip-path="url(#clip0_29_79)">
<circle cx="247.5" cy="451.5" r="330.5" fill="#5598E5" fill-opacity="0.1"/>
<rect x="13" y="207" width="85.1878" height="126.437" rx="10" fill="#CCE0F7"/>
<rect x="28.2441" y="224.934" width="42.1455" height="11.6573" rx="3" fill="white" fill-opacity="0.6"/>
<rect x="28.2441" y="246.455" width="21.5211" height="11.6573" rx="3" fill="white" fill-opacity="0.6"/>
<rect x="39.0047" y="267.977" width="21.5211" height="11.6573" rx="3" fill="white" fill-opacity="0.6"/>
<rect x="88.6995" y="175.282" width="117.469" height="126.437" rx="10" fill="#AACBF2"/>
<rect x="104.84" y="191.423" width="42.1455" height="11.6573" rx="3" fill="white" fill-opacity="0.6"/>
<rect x="147.883" y="213.84" width="67.2535" height="11.6573" rx="3" fill="white" fill-opacity="0.6"/>
<rect x="105.737" y="236.258" width="26.0047" height="11.6573" rx="3" fill="white" fill-opacity="0.6"/>
<rect x="121.878" y="258.676" width="40.3521" height="11.6573" rx="3" fill="white" fill-opacity="0.6"/>
<rect x="142.502" y="236.258" width="40.3521" height="11.6573" rx="3" fill="white" fill-opacity="0.6"/>
<rect x="130.845" y="281.094" width="56.493" height="11.6573" rx="3" fill="white" fill-opacity="0.6"/>
<rect x="175.681" y="143" width="157.822" height="169.479" rx="10" fill="#77ADEA"/>
<rect x="189.131" y="162.728" width="42.1455" height="11.6573" rx="3" fill="white" fill-opacity="0.6"/>
<rect x="219.62" y="185.146" width="67.2535" height="11.6573" rx="3" fill="white" fill-opacity="0.6"/>
<rect x="202.582" y="207.563" width="26.0047" height="11.6573" rx="3" fill="white" fill-opacity="0.6"/>
<rect x="240.244" y="207.563" width="26.0047" height="11.6573" rx="3" fill="white" fill-opacity="0.6"/>
<rect x="277.906" y="207.563" width="61.8732" height="11.6573" rx="3" fill="white" fill-opacity="0.6"/>
<rect x="246.521" y="229.981" width="40.3521" height="11.6573" rx="3" fill="white" fill-opacity="0.6"/>
<rect x="215.136" y="252.399" width="56.493" height="11.6573" rx="3" fill="white" fill-opacity="0.6"/>
</g>
<defs>
<clipPath id="clip0_29_79">
<rect width="325" height="286" rx="10" fill="white"/>
</clipPath>
</defs>
</svg>
