<svg width="244" height="180" viewBox="0 0 244 180" fill="none" xmlns="http://www.w3.org/2000/svg">
<rect width="242" height="179.5" rx="10" fill="#5598E5"/>
<rect x="0.25" y="0.25" width="241.5" height="179" rx="9.75" stroke="black" stroke-opacity="0.1" stroke-width="0.5"/>
<rect x="2" y="68" width="4" height="31" rx="2" fill="white" fill-opacity="0.2"/>
<rect x="9" y="74" width="4" height="13" rx="2" fill="white" fill-opacity="0.2"/>
<rect x="16" y="80" width="4" height="13" rx="2" fill="white" fill-opacity="0.2"/>
<rect x="23" y="76" width="4" height="19" rx="2" fill="white" fill-opacity="0.2"/>
<rect x="30" y="77" width="4" height="15" rx="2" fill="white" fill-opacity="0.2"/>
<rect x="37" y="76" width="4" height="11" rx="2" fill="white" fill-opacity="0.2"/>
<rect x="44" y="69" width="4" height="13" rx="2" fill="white" fill-opacity="0.2"/>
<rect x="51" y="62" width="4" height="15" rx="2" fill="white" fill-opacity="0.2"/>
<rect x="58" y="58" width="4" height="12" rx="2" fill="white" fill-opacity="0.2"/>
<rect x="65" y="56" width="4" height="12" rx="2" fill="white" fill-opacity="0.2"/>
<rect x="72" y="40" width="4" height="32" rx="2" fill="white" fill-opacity="0.2"/>
<rect x="79" y="24" width="4" height="32" rx="2" fill="white" fill-opacity="0.2"/>
<rect x="86" y="42" width="4" height="32" rx="2" fill="white" fill-opacity="0.2"/>
<rect x="93" y="60" width="4" height="20" rx="2" fill="white" fill-opacity="0.2"/>
<rect x="100" y="78" width="4" height="9" rx="2" fill="white" fill-opacity="0.2"/>
<rect x="107" y="73" width="4" height="14" rx="2" fill="white" fill-opacity="0.2"/>
<rect x="114" y="62" width="4" height="20" rx="2" fill="white" fill-opacity="0.2"/>
<rect x="121" y="51" width="4" height="14" rx="2" fill="white" fill-opacity="0.2"/>
<rect x="128" y="44" width="4" height="10" rx="2" fill="white" fill-opacity="0.2"/>
<rect x="135" y="37" width="4" height="10" rx="2" fill="white" fill-opacity="0.2"/>
<rect x="142" y="34" width="4" height="16" rx="2" fill="white" fill-opacity="0.2"/>
<rect x="156" y="34" width="4" height="10" rx="2" fill="white" fill-opacity="0.2"/>
<rect x="163" y="34" width="4" height="22" rx="2" fill="white" fill-opacity="0.2"/>
<rect x="170" y="36" width="4" height="22" rx="2" fill="white" fill-opacity="0.2"/>
<rect x="177" y="53" width="4" height="24" rx="2" fill="white" fill-opacity="0.2"/>
<rect x="184" y="65" width="4" height="24" rx="2" fill="white" fill-opacity="0.2"/>
<rect x="191" y="44" width="4" height="46" rx="2" fill="white" fill-opacity="0.2"/>
<rect x="198" y="89" width="4" height="13" rx="2" fill="white" fill-opacity="0.2"/>
<rect x="205" y="101" width="4" height="13" rx="2" fill="white" fill-opacity="0.2"/>
<rect x="212" y="79" width="4" height="27" rx="2" fill="white" fill-opacity="0.2"/>
<rect x="219" y="86" width="4" height="9" rx="2" fill="white" fill-opacity="0.2"/>
<rect x="226" y="82" width="4" height="18" rx="2" fill="white" fill-opacity="0.2"/>
<rect x="233" y="73" width="4" height="33" rx="2" fill="white" fill-opacity="0.2"/>
<rect x="240" y="44" width="4" height="33" rx="2" fill="white" fill-opacity="0.2"/>
<rect x="149" y="23" width="4" height="18" rx="2" fill="white" fill-opacity="0.2"/>
</svg>
